<?xml version="1.0" encoding="UTF-8"?>
<svg width="34px" height="60px" viewBox="0 0 34 60" version="1.1" xmlns="http://www.w3.org/2000/svg" xmlns:xlink="http://www.w3.org/1999/xlink">
    <!-- Generator: Sketch 40.3 (33839) - http://www.bohemiancoding.com/sketch -->
    <title>icon-osmo</title>
    <desc>Created with Sketch.</desc>
    <defs>
        <polygon id="path-1" points="10.6991993 9.61090022 10.6991993 0.206619763 0.685113872 0.206619763 0.685113872 9.61090022 10.6991993 9.61090022"></polygon>
        <polygon id="path-3" points="0 0.47245251 0 5.03369971 2.74673033 5.03369971 2.74673033 0.47245251"></polygon>
    </defs>
    <g id="导航" stroke="none" stroke-width="1" fill="none" fill-rule="evenodd">
        <g transform="translate(-655.000000, -968.000000)">
            <rect id="Rectangle-5" x="613" y="958" width="120" height="104"></rect>
            <g id="Page-1" transform="translate(665.000000, 978.000000)">
                <polygon id="Fill-1" fill="#717171" points="5.70315789 15.3191489 10.9190447 15.3191489 10.9190447 12.7659574 5.70315789 12.7659574"></polygon>
                <polygon id="Fill-2" fill="#717171" points="7.18393127 12.2770704 9.43827128 12.2770704 9.43827128 10.168503 7.18393127 10.168503"></polygon>
                <g id="Group-19" transform="translate(0.000000, 0.193300)">
                    <g id="Group-5" transform="translate(2.618281, 0.000000)">
                        <mask id="mask-2" fill="white">
                            <use xlink:href="#path-1"></use>
                        </mask>
                        <g id="Clip-4"></g>
                        <path d="M5.692441,9.61090022 C2.9280779,9.61090022 0.685113872,7.50584426 0.685113872,4.90919891 C0.685113872,2.31079789 2.9280779,0.205741925 5.692441,0.205741925 C8.4568041,0.205741925 10.6997681,2.31079789 10.6997681,4.90919891 C10.6997681,7.50584426 8.4568041,9.61090022 5.692441,9.61090022" id="Fill-3" fill="#717171" mask="url(#mask-2)"></path>
                    </g>
                    <path d="M3.84678758,3.77590982 L2.16883056,3.77590982" id="Stroke-6" stroke="#717171" stroke-width="0.5"></path>
                    <path d="M3.84678758,6.0414346 L2.16883056,6.0414346" id="Stroke-8" stroke="#717171" stroke-width="0.5"></path>
                    <path d="M8.31072207,7.75146338 C6.63845304,7.75146338 5.28471144,6.47859802 5.28471144,4.90902335 C5.28471144,3.33944867 6.63845304,2.06658331 8.31072207,2.06658331 C9.98299111,2.06658331 11.3367327,3.33944867 11.3367327,4.90902335 C11.3367327,6.47859802 9.98299111,7.75146338 8.31072207,7.75146338 L8.31072207,7.75146338 Z" id="Stroke-10" stroke="#FEFEFE" stroke-width="0.5"></path>
                    <path d="M8.31072207,7.75146338 C6.63845304,7.75146338 5.28471144,6.47859802 5.28471144,4.90902335 C5.28471144,3.33944867 6.63845304,2.06658331 8.31072207,2.06658331 C9.98299111,2.06658331 11.3367327,3.33944867 11.3367327,4.90902335 C11.3367327,6.47859802 9.98299111,7.75146338 8.31072207,7.75146338 L8.31072207,7.75146338 Z" id="Stroke-12" stroke="#FEFEFE" stroke-width="0.5"></path>
                    <path d="M4.76179556,31.9612116 C4.93812325,28.2148641 5.3590345,25.2550039 5.3590345,21.7070338 C5.3590345,19.7969934 4.78265153,16.273601 4.78265153,16.273601 C4.75610757,16.1103347 4.88124335,15.9769128 5.06136303,15.9769128 L11.4603517,15.9769128 C11.6404714,15.9769128 11.7731911,16.1103347 11.7561272,16.2788677 C11.7561272,16.2788677 11.3864078,19.7776824 11.3864078,21.5946784 C11.3864078,25.207604 11.7485432,28.2025753 11.862303,31.9612116 C11.9267669,34.0906959 11.7542312,38.5515529 11.7542312,38.5515529 C11.7485432,38.7183303 11.5968635,38.8535078 11.4167438,38.8535078 L5.38747445,38.8535078 C5.20545878,38.8535078 5.04809106,38.7200859 5.03671508,38.5515529 C5.03671508,38.5515529 4.66130774,34.0924514 4.76179556,31.9612116" id="Fill-14" fill="#717171"></path>
                    <g id="Group-18" transform="translate(0.000000, 2.155421)">
                        <mask id="mask-4" fill="white">
                            <use xlink:href="#path-3"></use>
                        </mask>
                        <g id="Clip-17"></g>
                        <path d="M2.74673033,0.737559642 C2.74673033,0.591838503 2.5988426,0.47245251 2.42061891,0.47245251 L0.325542623,0.47245251 C0.145422942,0.47245251 -0.000568798992,0.595349856 -0.000568798992,0.737559642 L-0.000568798992,4.76859258 C-0.000568798992,4.9160694 0.147318939,5.03369971 0.325542623,5.03369971 L2.42061891,5.03369971 C2.60073859,5.03369971 2.74673033,4.91255804 2.74673033,4.76859258 L2.74673033,0.737559642 Z" id="Fill-16" fill="#717171" mask="url(#mask-4)"></path>
                    </g>
                </g>
            </g>
        </g>
    </g>
</svg>