<?xml version="1.0" encoding="UTF-8"?>
<svg width="80px" height="60px" viewBox="0 0 80 60" version="1.1" xmlns="http://www.w3.org/2000/svg" xmlns:xlink="http://www.w3.org/1999/xlink">
    <!-- Generator: Sketch 40.3 (33839) - http://www.bohemiancoding.com/sketch -->
    <title>icon-phantom</title>
    <desc>Created with Sketch.</desc>
    <defs></defs>
    <g id="导航" stroke="none" stroke-width="1" fill="none" fill-rule="evenodd">
        <g transform="translate(-512.000000, -968.000000)">
            <rect id="Rectangle-5" x="493" y="958" width="120" height="104"></rect>
            <g id="Page-1" transform="translate(522.000000, 985.000000)" fill="#707473">
                <path d="M40.4218902,12.3465174 C40.162534,12.3465174 39.952579,12.1367543 39.952579,11.877635 C39.952579,11.6185158 40.162534,11.4087526 40.4218902,11.4087526 C40.6812463,11.4087526 40.8912013,11.6185158 40.8912013,11.877635 C40.8912013,12.1367543 40.6812463,12.3465174 40.4218902,12.3465174 L40.4218902,12.3465174 Z M41.7282767,13.2150467 C41.8528088,13.2150467 41.9536695,13.1094796 41.9536695,12.9795773 L41.9536695,10.7873463 C41.9536695,10.6571012 41.8528088,10.5518768 41.7282767,10.5518768 C41.7282767,10.5518768 40.3278907,10.5611311 39.9045501,10.6516172 C38.5991928,10.9306159 38.4026173,12.0428407 38.4026173,12.0428407 L38.4026173,12.6591057 C38.4345222,13.0508693 38.8379651,13.2150467 38.9624973,13.2150467 L39.8657839,13.2150467 C39.8685284,13.221559 39.8695576,13.2287568 39.8723021,13.2356118 C39.9018056,13.3031336 41.9636184,18.1664177 41.7766486,29.0038398 C41.7708166,29.3352794 42.0349756,29.6084514 42.3663751,29.6142781 L42.3770101,29.6142781 C42.7036067,29.6142781 42.9715395,29.3524169 42.9770285,29.0247476 C43.1389545,19.6388731 41.6754449,14.6792761 41.1509005,13.2150467 L41.7282767,13.2150467 Z M19.5492095,12.3465174 C19.2898534,12.3465174 19.0798984,12.1367543 19.0798984,11.877635 C19.0798984,11.6185158 19.2898534,11.4087526 19.5492095,11.4087526 C19.8085657,11.4087526 20.0185207,11.6185158 20.0185207,11.877635 C20.0185207,12.1367543 19.8085657,12.3465174 19.5492095,12.3465174 L19.5492095,12.3465174 Z M20.0665496,10.6516172 C19.643209,10.5611311 18.242823,10.5518768 18.242823,10.5518768 C18.1182909,10.5518768 18.0174302,10.6571012 18.0174302,10.7873463 L18.0174302,12.9795773 C18.0174302,13.1094796 18.1182909,13.2150467 18.242823,13.2150467 L18.8201992,13.2150467 C18.2956548,14.6792761 16.8318021,19.6388731 16.9940712,29.0247476 C16.9995602,29.3524169 17.267493,29.6142781 17.5940896,29.6142781 L17.6047246,29.6142781 C17.9361241,29.6084514 18.2002831,29.3352794 18.1944511,29.0038398 C18.0074813,18.1664177 20.0692941,13.3031336 20.0987976,13.2356118 C20.1015421,13.2287568 20.1025713,13.221559 20.1053158,13.2150467 L21.0086025,13.2150467 C21.1331346,13.2150467 21.5365775,13.0508693 21.5684824,12.6591057 L21.5684824,12.0428407 C21.5684824,12.0428407 21.3719069,10.9306159 20.0665496,10.6516172 L20.0665496,10.6516172 Z M29.7213908,24.7965798 C28.5234124,24.7965798 27.5521991,23.8259109 27.5521991,22.6290268 C27.5521991,21.4321427 28.5234124,20.4614738 29.7213908,20.4614738 C30.9197123,20.4614738 31.8909255,21.4321427 31.8909255,22.6290268 C31.8909255,23.8259109 30.9197123,24.7965798 29.7213908,24.7965798 L29.7213908,24.7965798 Z M32.4494332,19.8438378 L26.9933484,19.8438378 C26.5487379,19.8438378 26.1881779,20.2040683 26.1881779,20.6482727 L26.1881779,24.6097808 C26.1881779,25.0539853 26.5487379,25.4142158 26.9933484,25.4142158 L32.4494332,25.4142158 C32.8943868,25.4142158 33.2549468,25.0539853 33.2549468,24.6097808 L33.2549468,20.6482727 C33.2549468,20.2040683 32.8943868,19.8438378 32.4494332,19.8438378 L32.4494332,19.8438378 Z M31.931064,16.8992698 L31.931064,16.0595316 C31.931064,15.9351132 31.8302033,15.8343446 31.7056712,15.8343446 L27.7374535,15.8343446 C27.6129214,15.8343446 27.5120607,15.9351132 27.5120607,16.0595316 L27.5120607,16.8992698 C27.5120607,17.0233455 27.6129214,17.1244568 27.7374535,17.1244568 L31.7056712,17.1244568 C31.8302033,17.1244568 31.931064,17.0233455 31.931064,16.8992698 L31.931064,16.8992698 Z M34.6371503,21.0019911 L33.9143152,21.0019911 C33.789783,21.0019911 33.6889223,21.1027597 33.6889223,21.227178 L33.6889223,24.0308756 C33.6889223,24.1552939 33.789783,24.2560625 33.9143152,24.2560625 L34.6371503,24.2560625 C34.7616825,24.2560625 34.8625432,24.1552939 34.8625432,24.0308756 L34.8625432,21.227178 C34.8625432,21.1027597 34.7616825,21.0019911 34.6371503,21.0019911 L34.6371503,21.0019911 Z M25.5288095,21.0019911 L23.7242946,21.0019911 C23.6001055,21.0019911 23.4992448,21.1027597 23.4992448,21.227178 L23.4992448,24.0308756 C23.4992448,24.1552939 23.6001055,24.2560625 23.7242946,24.2560625 L25.5288095,24.2560625 C25.6533417,24.2560625 25.7542024,24.1552939 25.7542024,24.0308756 L25.7542024,21.227178 C25.7542024,21.1027597 25.6533417,21.0019911 25.5288095,21.0019911 L25.5288095,21.0019911 Z M31.5550662,18.0077243 L31.5550662,17.7808236 C31.5550662,17.6564053 31.4542055,17.5556367 31.3296734,17.5556367 L28.1134513,17.5556367 C27.9889192,17.5556367 27.8880585,17.6564053 27.8880585,17.7808236 L27.8880585,18.0077243 C27.8880585,18.1321427 27.9889192,18.2329113 28.1134513,18.2329113 L28.3360997,18.2329113 C28.3175742,18.2658153 28.3038517,18.3018041 28.3038517,18.3425914 L28.3038517,19.1723899 C28.3038517,19.2968083 28.4047124,19.3975769 28.5292445,19.3975769 L30.9138802,19.3975769 C31.0384123,19.3975769 31.139273,19.2968083 31.139273,19.1723899 L31.139273,18.3425914 C31.139273,18.3018041 31.1255505,18.2658153 31.106682,18.2329113 L31.3296734,18.2329113 C31.4542055,18.2329113 31.5550662,18.1321427 31.5550662,18.0077243 L31.5550662,18.0077243 Z M49.2578384,5.02502804 C45.7880923,4.55374636 43.2981361,3.44186435 40.4915321,2.98977669 C35.0134912,2.10753739 30.7228916,1.96255401 29.9440391,1.96255401 C29.2771084,1.96255401 24.874244,2.10753739 19.3965462,2.98977669 C16.5895991,3.44186435 14.0996429,4.55374636 10.6302399,5.02502804 C9.7224934,5.14807541 6.51038813,5.31053905 6.51038813,5.31053905 C6.51038813,5.31053905 6.45549794,5.31328106 6.37693636,5.33418882 C5.86474228,5.44386892 5.47708032,5.94805463 5.47708032,6.55506543 C5.47708032,7.09798193 5.78858214,7.55486809 6.22015625,7.72487225 C6.33611178,7.79136581 6.43182655,7.79890631 6.43182655,7.79890631 L10.50708,7.82049958 C10.50708,7.82049958 10.9417417,7.91749792 11.2391779,8.0025 C17.6832862,9.84409742 19.6222821,9.63776174 21.1485724,10.5446791 C22.395952,11.286048 23.0920282,13.3151298 25.0423452,14.4078178 C25.7761585,14.8187754 26.8907724,15.2633226 27.7590665,15.3041099 C27.7628402,15.3044526 29.8157333,15.3047954 29.8157333,15.3047954 L30.0720019,15.3047954 L32.1173476,15.3047954 C32.9973059,15.2633226 34.1119198,14.8187754 34.8457331,14.4078178 C36.7960501,13.3151298 37.4917832,11.286048 38.7395059,10.5446791 C40.2654531,9.63776174 42.4607176,9.80502389 48.6485573,8.0025 C48.9456504,7.91612692 49.3809983,7.82049958 49.3809983,7.82049958 L53.3818069,7.79959182 C53.4562517,7.79890631 53.4905581,7.79753531 53.5430469,7.78211155 C54.0799415,7.69539572 54.4940194,7.18195575 54.4940194,6.55506543 C54.4940194,5.86785106 53.9976062,5.31053905 53.3852376,5.31053905 C53.3773471,5.31053905 50.1652418,5.14807541 49.2578384,5.02502804 Z M59.7003538,1.91799647 L42.1924418,1.91799647 C42.042523,1.91799647 41.9207354,2.03967283 41.9207354,2.18911197 C41.9207354,2.3392366 42.042523,2.46091296 42.1924418,2.46091296 L59.7003538,2.46091296 C59.8492435,2.46091296 59.9710311,2.3392366 59.9710311,2.18911197 C59.9710311,2.03967283 59.8492435,1.91799647 59.7003538,1.91799647 L59.7003538,1.91799647 Z M50.9463978,-3.42750311e-05 C50.17176,-3.42750311e-05 49.8811851,0.832506232 49.6482449,1.37507998 L52.0887999,1.37507998 C52.0887999,1.37507998 51.7210356,-3.42750311e-05 50.9463978,-3.42750311e-05 L50.9463978,-3.42750311e-05 Z M52.1080115,4.78647383 C52.6215778,4.78647383 53.0380571,4.36968945 53.0380571,3.85556398 L53.0380571,3.77913066 C53.0380571,3.26500519 52.6215778,2.84890631 52.1080115,2.84890631 L49.5515009,2.84890631 C49.0382776,2.84890631 48.6224844,3.26500519 48.6224844,3.77913066 L48.6224844,3.85556398 C48.6224844,4.36968945 49.0382776,4.78647383 49.5515009,4.78647383 L52.1080115,4.78647383 Z M9.02538799,-3.42750311e-05 C8.25109326,-3.42750311e-05 7.96051832,0.832506232 7.72757808,1.37507998 L10.1681331,1.37507998 C10.1681331,1.37507998 9.80036885,-3.42750311e-05 9.02538799,-3.42750311e-05 L9.02538799,-3.42750311e-05 Z M7.63083412,2.84890631 C7.11726779,2.84890631 6.70181767,3.26500519 6.70181767,3.77913066 L6.70181767,3.85556398 C6.70181767,4.36968945 7.11726779,4.78647383 7.63083412,4.78647383 L10.1870016,4.78647383 C10.700911,4.78647383 11.1173903,4.36968945 11.1173903,3.85556398 L11.1173903,3.77913066 C11.1173903,3.26500519 10.700911,2.84890631 10.1870016,2.84890631 L7.63083412,2.84890631 Z M18.0503643,2.18911197 C18.0503643,2.03967283 17.9285767,1.91799647 17.779344,1.91799647 L0.27177505,1.91799647 C0.12185622,1.91799647 6.86127366e-05,2.03967283 6.86127366e-05,2.18911197 C6.86127366e-05,2.3392366 0.12185622,2.46091296 0.27177505,2.46091296 L17.779344,2.46091296 C17.9285767,2.46091296 18.0503643,2.3392366 18.0503643,2.18911197 L18.0503643,2.18911197 Z" id="Fill-1"></path>
            </g>
        </g>
    </g>
</svg>