<?xml version="1.0" encoding="UTF-8"?>
<svg width="86px" height="60px" viewBox="0 0 86 60" version="1.1" xmlns="http://www.w3.org/2000/svg" xmlns:xlink="http://www.w3.org/1999/xlink">
    <!-- Generator: Sketch 43.1 (39012) - http://www.bohemiancoding.com/sketch -->
    <title>icon-mavic</title>
    <desc>Created with Sketch.</desc>
    <defs>
        <polygon id="path-1" points="0 24.5196472 39.6608696 24.5196472 39.6608696 0.545270249 0 0.545270249"></polygon>
    </defs>
    <g id="导航" stroke="none" stroke-width="1" fill="none" fill-rule="evenodd">
        <g transform="translate(-281.000000, -877.000000)" id="Page-1">
            <g transform="translate(305.000000, 894.000000)">
                <path d="M19.3507246,23.1792398 C19.1698551,23.1792398 19.0231884,23.3012542 19.0231884,23.4524587 C19.0231884,23.6030794 19.1698551,23.7250938 19.3507246,23.7250938 C19.5315942,23.7250938 19.6788406,23.6030794 19.6788406,23.4524587 C19.6788406,23.3012542 19.5315942,23.1792398 19.3507246,23.1792398" id="Fill-1" fill="#707473"></path>
                <g id="Group-5" transform="translate(0.000000, 0.038706)">
                    <mask id="mask-2" fill="white">
                        <use xlink:href="#path-1"></use>
                    </mask>
                    <g id="Clip-4"></g>
                    <path d="M24.311942,12.0101318 L24.0864348,11.80405 C24.0417971,11.763184 24.0151304,11.7059715 24.0122319,11.6452561 L23.9826667,11.0363516 C23.9797681,10.9803067 24.0464348,10.9511166 24.0858551,10.9896475 L24.2470145,11.149609 C24.2846957,11.1881399 24.3078841,11.237763 24.311942,11.2914727 L24.3681739,11.9821094 C24.3710725,12.0130508 24.3345507,12.0305649 24.311942,12.0101318 L24.311942,12.0101318 Z M23.938029,10.1116106 C23.9368696,10.0865071 23.9652754,10.0724959 23.9849855,10.0882585 L24.2041159,10.2704045 C24.2412174,10.3007621 24.2644058,10.3457148 24.2690435,10.3941703 L24.320058,10.9826419 C24.3223768,11.0106643 24.2893333,11.0258431 24.2696232,11.0065777 L23.9936812,10.7333588 C23.9762899,10.7164285 23.9664348,10.6936603 23.9646957,10.6691407 L23.938029,10.1116106 Z M23.2661449,20.6276202 C23.2649855,20.6474694 23.2597681,20.6655673 23.2516522,20.6819137 L23.3588986,19.2959698 C23.3658551,19.2083997 23.3032464,19.1307541 23.2174493,19.1219971 C22.9774493,19.0968937 22.3861449,19.0595304 20.991942,19.0595304 L20.1073043,19.0595304 L19.5536812,19.0595304 L18.6690435,19.0595304 C17.2748406,19.0595304 16.6835362,19.0968937 16.4435362,19.1219971 C16.3577391,19.1307541 16.2951304,19.2083997 16.302087,19.2959698 L16.4093333,20.6819137 C16.4012174,20.6655673 16.396,20.6474694 16.3948406,20.6276202 L16.1902029,19.145933 C16.1838261,19.057779 16.2481739,18.9801334 16.3362899,18.9719602 C16.5844058,18.9468568 17.1942609,18.9089097 18.631942,18.9089097 L19.5449855,18.9089097 L20.116,18.9089097 L21.0290435,18.9089097 C22.4667246,18.9089097 23.0765797,18.9468568 23.3246957,18.9719602 C23.4128116,18.9801334 23.4777391,19.057779 23.4707826,19.145933 L23.2661449,20.6276202 Z M21.3536812,23.5647237 C21.316,23.102937 20.9171594,22.7409803 20.4296232,22.7672513 L19.2313623,22.7672513 C18.7444058,22.7409803 18.3449855,23.102937 18.3073043,23.5647237 C18.3055652,23.5413716 18.3038261,23.5174358 18.3038261,23.4929161 C18.3038261,22.997269 18.7194783,22.5956138 19.2313623,22.6236362 L20.4296232,22.6236362 C20.942087,22.5956138 21.3571594,22.997269 21.3571594,23.4929161 C21.3571594,23.5174358 21.3554203,23.5413716 21.3536812,23.5647237 L21.3536812,23.5647237 Z M19.3507826,24.1461896 C18.9409275,24.1461896 18.6093333,23.8694678 18.6093333,23.5279442 C18.6093333,23.1875881 18.9409275,22.9108664 19.3507826,22.9108664 C19.7606377,22.9108664 20.0928116,23.1875881 20.0928116,23.5279442 C20.0928116,23.8694678 19.7606377,24.1461896 19.3507826,24.1461896 L19.3507826,24.1461896 Z M15.6962899,10.6691407 C15.6945507,10.6936603 15.6846957,10.7164285 15.6673043,10.7333588 L15.3913623,11.0065777 C15.3716522,11.0258431 15.3386087,11.0106643 15.3409275,10.9826419 L15.391942,10.3941703 C15.3965797,10.3457148 15.4197681,10.3007621 15.4568696,10.2704045 L15.6765797,10.0882585 C15.6957101,10.0724959 15.7241159,10.0865071 15.7229565,10.1116106 L15.6962899,10.6691407 Z M15.6487536,11.6452561 C15.6458551,11.7059715 15.6191884,11.763184 15.5745507,11.80405 L15.3490435,12.0101318 C15.3264348,12.0305649 15.289913,12.0130508 15.2928116,11.9821094 L15.3490435,11.2914727 C15.3531014,11.237763 15.3762899,11.1881399 15.413971,11.149609 L15.5751304,10.9896475 C15.6145507,10.9511166 15.6812174,10.9803067 15.6783188,11.0363516 L15.6487536,11.6452561 Z M39.6209275,8.27263705 L34.0684638,5.1814101 L33.298029,5.15280385 L33.0128116,4.95139246 C33.0128116,4.95139246 33.0412174,4.74998107 32.8133913,4.606366 C32.5849855,4.46275092 30.929913,3.5146579 30.929913,3.5146579 C30.929913,3.5146579 30.5588986,3.40023288 30.2168696,3.5146579 C30.2168696,3.5146579 29.7368696,3.31149511 29.2765797,3.28755926 C29.218029,3.28464026 29.1612174,3.26595862 29.111942,3.23384956 C28.8545507,3.06571484 28.022087,2.525115 27.5913623,2.30794098 C27.1322319,2.07675573 24.5977391,0.835010746 24.0655652,0.574635445 C24.0023768,0.543110184 23.9304928,0.537272173 23.8626667,0.555370008 L23.2615072,0.720585726 C23.1768696,0.74335397 23.1641159,0.858946592 23.2417971,0.900980273 C24.0406377,1.3300741 26.7971594,2.80884234 26.9925217,2.88240128 C27.2209275,2.96938765 29.7316522,4.20471083 29.8742609,4.40612221 L29.8423768,4.53455846 C29.8261449,4.59994419 29.8348406,4.66824892 29.8673043,4.72604523 L29.9594783,4.89417995 C29.9594783,4.89417995 29.6806377,5.0728231 29.6968696,5.45462903 C29.698029,5.4908247 29.6817971,5.52468516 29.6533913,5.54686961 C29.6290435,5.56555124 29.6023768,5.60057931 29.5890435,5.67005164 L29.4748406,6.84816231 C29.4748406,6.84816231 29.018029,7.13539246 28.9612174,7.3654101 C28.9038261,7.59542775 28.9328116,7.65264026 28.9328116,7.65264026 L24.7983188,8.27964266 C24.7774493,8.28314547 24.756,8.28139407 24.7357101,8.27555605 L24.4615072,8.19032109 C24.4203478,8.17747747 24.3867246,8.14595221 24.3710725,8.10508613 L23.8568696,6.75942454 C23.836,6.70396343 23.8064348,6.65200513 23.7693333,6.60530104 L23.5362899,6.31164908 C23.5009275,6.26728019 23.4562899,6.23166832 23.4064348,6.20714868 L22.1322319,5.57781107 C22.0586087,5.5416154 21.9809275,5.51417674 21.9003478,5.49724651 C21.6528116,5.44470441 21.0707826,5.337285 20.4012174,5.32619278 L20.4012174,5.32502518 L20.2870145,5.32502518 L19.373971,5.32502518 L19.2597681,5.32502518 L19.2597681,5.32619278 C18.5902029,5.337285 18.0081739,5.44470441 17.7606377,5.49724651 C17.6806377,5.51417674 17.6023768,5.5416154 17.5287536,5.57781107 L16.2551304,6.20714868 C16.2046957,6.23166832 16.160058,6.26728019 16.1246957,6.31164908 L15.8916522,6.60530104 C15.8545507,6.65200513 15.8249855,6.70396343 15.8041159,6.75942454 L15.289913,8.10508613 C15.2742609,8.14595221 15.2412174,8.17747747 15.1994783,8.19032109 L14.9252754,8.27555605 C14.9049855,8.28139407 14.8835362,8.28314547 14.8626667,8.27964266 L10.7281739,7.65264026 C10.7281739,7.65264026 10.7571594,7.59542775 10.7003478,7.3654101 C10.6429565,7.13539246 10.1861449,6.84816231 10.1861449,6.84816231 L10.0725217,5.67005164 C10.0586087,5.60057931 10.031942,5.56555124 10.0075942,5.54686961 C9.97918841,5.52468516 9.96295652,5.4908247 9.96411594,5.45462903 C9.98034783,5.0728231 9.70150725,4.89417995 9.70150725,4.89417995 L9.79368116,4.72604523 C9.82614493,4.66824892 9.83484058,4.59994419 9.81918841,4.53455846 L9.78672464,4.40612221 C9.92933333,4.20471083 12.4406377,2.96938765 12.6690435,2.88240128 C12.8638261,2.80884234 15.6203478,1.3300741 16.4191884,0.900980273 C16.4968696,0.858946592 16.4841159,0.74335397 16.3994783,0.720585726 L15.7983188,0.555370008 C15.7304928,0.537272173 15.6586087,0.543110184 15.5954203,0.574635445 C15.0632464,0.835010746 12.5287536,2.07675573 12.0696232,2.30794098 C11.6388986,2.525115 10.8064348,3.06571484 10.5490435,3.23384956 C10.4997681,3.26595862 10.4429565,3.28464026 10.3844058,3.28755926 C9.92411594,3.31149511 9.44469565,3.5146579 9.44469565,3.5146579 C9.10208696,3.40023288 8.73107246,3.5146579 8.73107246,3.5146579 C8.73107246,3.5146579 7.07657971,4.46275092 6.84817391,4.606366 C6.61976812,4.74998107 6.64817391,4.95139246 6.64817391,4.95139246 L6.36295652,5.15280385 L5.59252174,5.1814101 L0.040057971,8.27263705 C-0.0138550725,8.30182711 -0.0132753623,8.38122406 0.0412173913,8.41041411 L0.815130435,8.82899952 C0.987884058,8.9224077 1.18962319,8.94517594 1.3786087,8.89263384 C2.43947826,8.59898188 6.02324638,7.60651997 6.36295652,7.50902518 C6.76237681,7.39401636 6.87657971,7.22179503 6.87657971,7.22179503 L6.87657971,7.30761379 C6.68991304,7.42087121 6.58846377,7.63220722 6.54092754,7.76531387 C6.51715942,7.8306996 6.50556522,7.89958813 6.50556522,7.96964427 L6.50556522,9.03157851 C6.50556522,9.52022005 6.79078261,9.69244138 6.79078261,9.69244138 C6.81976812,9.83605646 6.90498551,10.6983307 8.64585507,10.6983307 C10.0475942,10.6983307 10.3015072,10.1956779 10.3478841,9.99952077 C10.3571594,9.95982229 10.3988986,9.93705405 10.4365797,9.95106528 L14.7594783,11.5039763 C14.8104928,11.5220741 14.8568696,11.551848 14.8951304,11.5903788 C14.9675942,11.6627702 15.0064348,11.7626002 15.0023768,11.8647654 L14.8945507,14.6506643 C14.8945507,14.6588375 14.893971,14.6681783 14.8916522,14.6757678 C14.8516522,14.8351455 14.5478841,15.0569899 14.5009275,15.0902666 C14.4968696,15.0931856 14.4928116,15.0955208 14.4887536,15.0984398 L10.1861449,17.5369771 C10.1861449,17.5369771 9.92933333,17.2783532 9.58730435,17.1061318 C9.24469565,16.9339105 8.70266667,16.8761142 8.70266667,16.8761142 L8.33165217,16.588884 C8.33165217,16.3302601 8.18904348,16.2438576 8.18904348,16.2438576 C8.18904348,16.2438576 6.96237681,15.4107734 6.9333913,15.3815833 C6.90498551,15.3535609 6.56295652,15.1521495 6.56295652,15.1521495 C6.47715942,14.9221318 5.64991304,14.2040565 5.47831884,14.0604414 C5.34034783,13.944265 3.30904348,12.4830107 2.52817391,11.9213941 C2.33802899,11.7842008 2.09455072,11.7474213 1.87252174,11.8203965 L1.00005797,12.1076266 C0.884695652,12.1455737 0.852231884,12.2950268 0.942086957,12.3779265 L3.99484058,15.209362 L5.42150725,16.2152513 C5.42150725,16.588884 5.59252174,16.8183179 5.59252174,16.8183179 C5.07889855,17.1925344 5.25049275,17.7097822 5.25049275,17.7097822 C5.22150725,17.7383885 5.19310145,17.9106098 5.19310145,17.9106098 L5.39310145,19.2323355 C5.02208696,19.606552 5.02208696,20.0082072 5.02208696,20.0082072 L5.02208696,21.0713091 C5.02208696,21.8185745 5.42150725,22.0485921 5.42150725,22.0485921 C5.42150725,22.0485921 5.39310145,23.1403002 7.3617971,23.1403002 C9.33049275,23.1403002 9.50150725,21.875787 9.50150725,21.875787 C9.60353623,21.773038 9.70614493,21.5663724 9.756,21.4583692 C9.77628986,21.4128327 9.78672464,21.3637934 9.78672464,21.3147541 L9.78672464,20.6404638 C9.78672464,20.6404638 11.9838261,21.7035657 12.1838261,21.7899682 C12.3832464,21.875787 12.4690435,21.8185745 12.4690435,21.8185745 C12.4690435,21.8185745 13.7531014,21.1577116 13.8673043,21.0999153 C13.929913,21.0689739 13.9322319,21.0199346 13.9217971,20.9819875 C13.9136812,20.9533812 13.8962899,20.9282778 13.8742609,20.9084285 L12.3548406,19.5487557 L14.8186087,18.5726403 C14.8667246,18.5539586 14.9206377,18.5574614 14.9652754,18.5825649 L15.4081739,18.8306804 L15.836,20.0660035 C15.836,20.0660035 16.1212174,21.2155079 16.2638261,21.7321719 C16.3641159,22.0941286 16.489913,22.0626034 16.591942,22.0106451 C16.6261449,21.993131 16.6673043,22.0170669 16.6707826,22.0555978 L16.8006377,23.7083387 C16.8041159,23.7497886 16.822087,23.7889033 16.8510725,23.8180933 L16.9264348,23.8934037 C16.9588986,23.9266804 17.0029565,23.9447782 17.0487536,23.9447782 L17.5751304,23.9447782 C17.6075942,23.9447782 17.6331014,23.9185071 17.6331014,23.8863981 L17.6331014,23.6003355 L17.7188986,23.6003355 L17.7188986,23.8793925 C17.7188986,23.9033283 17.7270145,23.9266804 17.7409275,23.945362 L17.8736812,24.1234213 C17.8841159,24.1374326 17.9003478,24.1461896 17.9183188,24.1461896 L18.4893333,24.1461896 C18.6748406,24.4264141 19.1049855,24.4976379 19.2597681,24.5145681 L19.3171594,24.5198223 L20.3438261,24.5198223 L20.4012174,24.5145681 C20.556,24.4976379 20.9861449,24.4264141 21.1716522,24.1461896 L21.7426667,24.1461896 C21.7606377,24.1461896 21.7768696,24.1374326 21.7878841,24.1234213 L21.920058,23.945362 C21.933971,23.9266804 21.942087,23.9033283 21.942087,23.8793925 L21.942087,23.6003355 L22.0278841,23.6003355 L22.0278841,23.8863981 C22.0278841,23.9185071 22.0533913,23.9447782 22.0858551,23.9447782 L22.6122319,23.9447782 C22.658029,23.9447782 22.702087,23.9266804 22.7345507,23.8934037 L22.809913,23.8180933 C22.8388986,23.7889033 22.8568696,23.7497886 22.8603478,23.7083387 L22.9902029,22.0555978 C22.9936812,22.0170669 23.0348406,21.993131 23.0690435,22.0106451 C23.1710725,22.0626034 23.2974493,22.0941286 23.3971594,21.7321719 C23.5397681,21.2155079 23.8249855,20.0660035 23.8249855,20.0660035 L24.2528116,18.8306804 L24.6957101,18.5825649 C24.7403478,18.5574614 24.7948406,18.5539586 24.8423768,18.5726403 L27.3061449,19.5487557 L25.7867246,20.9084285 C25.7646957,20.9282778 25.7473043,20.9533812 25.7391884,20.9819875 C25.7287536,21.0199346 25.7310725,21.0689739 25.7936812,21.0999153 C25.9078841,21.1577116 27.191942,21.8185745 27.191942,21.8185745 C27.191942,21.8185745 27.2777391,21.875787 27.4771594,21.7899682 C27.6771594,21.7035657 29.8742609,20.6404638 29.8742609,20.6404638 L29.8742609,21.3147541 C29.8742609,21.3637934 29.8846957,21.4128327 29.9049855,21.4583692 C29.9548406,21.5663724 30.0574493,21.773038 30.1594783,21.875787 C30.1594783,21.875787 30.3304928,23.1403002 32.2991884,23.1403002 C34.2678841,23.1403002 34.2394783,22.0485921 34.2394783,22.0485921 C34.2394783,22.0485921 34.6388986,21.8185745 34.6388986,21.0713091 L34.6388986,20.0082072 C34.6388986,20.0082072 34.6388986,19.606552 34.2678841,19.2323355 L34.4678841,17.9106098 C34.4678841,17.9106098 34.4394783,17.7383885 34.4104928,17.7097822 C34.4104928,17.7097822 34.582087,17.1925344 34.0684638,16.8183179 C34.0684638,16.8183179 34.2394783,16.588884 34.2394783,16.2152513 L35.6661449,15.209362 L38.7194783,12.3779265 C38.8087536,12.2950268 38.7762899,12.1455737 38.6609275,12.1076266 L37.7890435,11.8203965 C37.5664348,11.7474213 37.3229565,11.7842008 37.1328116,11.9213941 C36.351942,12.4830107 34.3206377,13.944265 34.1826667,14.0604414 C34.0110725,14.2040565 33.1838261,14.9221318 33.0986087,15.1521495 C33.0986087,15.1521495 32.756,15.3535609 32.7275942,15.3815833 C32.6986087,15.4107734 31.471942,16.2438576 31.471942,16.2438576 C31.471942,16.2438576 31.3293333,16.3302601 31.3293333,16.588884 L30.9583188,16.8761142 C30.9583188,16.8761142 30.4162899,16.9339105 30.0736812,17.1061318 C29.7316522,17.2783532 29.4748406,17.5369771 29.4748406,17.5369771 L25.1722319,15.0984398 C25.1681739,15.0955208 25.1641159,15.0931856 25.160058,15.0902666 C25.1131014,15.0569899 24.8093333,14.8351455 24.7693333,14.6757678 C24.7670145,14.6681783 24.7664348,14.6588375 24.7664348,14.6506643 L24.6586087,11.8647654 C24.6545507,11.7626002 24.6933913,11.6627702 24.7658551,11.5903788 C24.8041159,11.551848 24.8504928,11.5220741 24.9015072,11.5039763 L29.2244058,9.95106528 C29.2626667,9.93705405 29.3044058,9.95982229 29.3131014,9.99952077 C29.3594783,10.1956779 29.613971,10.6983307 31.0151304,10.6983307 C32.756,10.6983307 32.8412174,9.83605646 32.8702029,9.69244138 C32.8702029,9.69244138 33.1554203,9.52022005 33.1554203,9.03157851 L33.1554203,7.96964427 C33.1554203,7.89958813 33.1438261,7.8306996 33.120058,7.76531387 C33.0725217,7.63220722 32.9716522,7.42087121 32.7844058,7.30761379 L32.7844058,7.22179503 C32.7844058,7.22179503 32.8986087,7.39401636 33.298029,7.50902518 C33.6377391,7.60651997 37.2215072,8.59898188 38.2823768,8.89263384 C38.4713623,8.94517594 38.6731014,8.9224077 38.8458551,8.82899952 L39.6197681,8.41041411 C39.6742609,8.38122406 39.6748406,8.30182711 39.6209275,8.27263705 L39.6209275,8.27263705 Z" id="Fill-3" fill="#707473" mask="url(#mask-2)"></path>
                </g>
            </g>
        </g>
    </g>
</svg>