<?xml version="1.0" encoding="UTF-8"?>
<svg width="86px" height="60px" viewBox="0 0 86 60" version="1.1" xmlns="http://www.w3.org/2000/svg" xmlns:xlink="http://www.w3.org/1999/xlink">
    <!-- Generator: Sketch 40.3 (33839) - http://www.bohemiancoding.com/sketch -->
    <title>icon-mavic</title>
    <desc>Created with Sketch.</desc>
    <defs>
        <polygon id="path-1" points="65.8329329 0.165941176 0 0.165941176 0 25.6173987 65.8329329 25.6173987 65.8329329 0.165941176"></polygon>
    </defs>
    <g id="导航" stroke="none" stroke-width="1" fill="none" fill-rule="evenodd">
        <g transform="translate(-389.000000, -968.000000)">
            <rect id="Rectangle-5" x="373" y="958" width="120" height="104"></rect>
            <g id="Page-1" transform="translate(399.000000, 986.000000)">
                <g id="Group-3" transform="translate(0.000000, 0.216565)">
                    <mask id="mask-2" fill="white">
                        <use xlink:href="#path-1"></use>
                    </mask>
                    <g id="Clip-2"></g>
                    <path d="M38.5278034,16.1898941 C38.1792172,16.1898941 37.896631,15.9050412 37.896631,15.5536588 C37.896631,15.2022765 38.1792172,14.9178059 38.5278034,14.9178059 C38.8763897,14.9178059 39.1589759,15.2022765 39.1589759,15.5536588 C39.1589759,15.9050412 38.8763897,16.1898941 38.5278034,16.1898941 L38.5278034,16.1898941 Z M34.718769,20.2374824 L31.1160793,20.2516294 L31.1126655,19.4161882 C31.1126655,18.8541294 31.4305276,18.3486588 31.8940448,18.0462176 C32.3708379,17.7816294 33.4659069,17.7349824 33.9514241,18.0565412 C34.4153207,18.3574529 34.7202862,18.8529824 34.7202862,19.4161882 L34.718769,20.2374824 Z M31.3451828,16.8785118 L34.3770103,16.8616882 L34.3770103,17.2784529 C34.1926655,17.5128353 33.5808379,17.6852765 32.8529414,17.6852765 C32.1462862,17.6852765 31.5484931,17.5227765 31.3451828,17.2991 L31.3451828,16.8785118 Z M32.9166655,7.2891 C33.5812172,7.2891 34.1202172,7.45924706 34.1202172,7.66915882 C34.1202172,7.74792353 34.0439759,7.82133529 33.9131138,7.88212941 C33.6965276,7.98268824 33.3308724,8.04921765 32.9166655,8.04921765 C32.4925966,8.04921765 32.1204931,7.97962941 31.9058034,7.87524706 C31.7840448,7.81598235 31.7127345,7.74524706 31.7127345,7.66915882 C31.7127345,7.45924706 32.2517345,7.2891 32.9166655,7.2891 L32.9166655,7.2891 Z M27.3051483,16.1898941 C26.9565621,16.1898941 26.6739759,15.9050412 26.6739759,15.5536588 C26.6739759,15.2022765 26.9565621,14.9178059 27.3051483,14.9178059 C27.6537345,14.9178059 27.9363207,15.2022765 27.9363207,15.5536588 C27.9363207,15.9050412 27.6537345,16.1898941 27.3051483,16.1898941 L27.3051483,16.1898941 Z M65.5988034,7.82095294 C65.2449069,7.74486471 64.5340793,7.79839412 63.9988724,8.03851176 C63.4219414,8.2966 60.2634241,9.76674706 58.9278724,10.6866882 C58.7958724,10.6564824 58.6551483,10.6335412 58.4988724,10.6396588 C58.2750793,10.6496 57.9484931,10.6939529 57.7690793,10.9233647 L56.9626655,11.3267471 C56.9626655,11.3267471 56.8033552,11.3099235 56.6554241,11.3932765 C56.5355621,11.4601882 56.4312517,11.5167765 56.3925621,11.6001294 L56.3872517,11.6012765 C56.3872517,11.6012765 56.387631,11.6047176 56.3880103,11.6096882 C56.3811828,11.6265118 56.3762517,11.6444824 56.3754931,11.6639824 C56.3728379,11.7240118 56.3701828,11.7936 56.3679069,11.8486588 L56.3644931,11.8490412 C56.2586655,11.9541882 55.9836655,12.1025412 55.1541138,12.1247176 C54.3241828,12.1472765 53.6133552,12.5261882 53.219631,12.7720412 C53.1479414,12.8167765 52.9059414,12.9506 52.5573552,13.1402471 C52.3206655,13.0794529 49.7394586,12.4160706 47.4059414,11.8192176 L47.4063207,11.8192176 L47.4059414,11.8192176 C47.3448724,11.8035412 47.2838034,11.7882471 47.2227345,11.7725706 L47.2231138,11.7721882 L47.2227345,11.7725706 C47.0516655,11.7289824 46.8821138,11.6857765 46.7152172,11.6429529 L46.7152172,11.6425706 L46.7152172,11.6425706 C45.0948034,11.2288647 43.7364931,10.8843647 43.6010793,10.8568353 C43.2483207,10.7849529 42.9592862,10.7501588 42.5833897,10.8438353 C42.2253207,10.9321588 40.2221828,11.4984235 40.0321483,11.5523353 C40.0355621,11.4368647 40.0385966,11.3236882 40.041631,11.2154824 C40.064769,11.2284824 40.1781828,11.2869824 40.3667,11.2705412 C40.5783552,11.2521882 41.2592172,11.1153059 41.2592172,11.1153059 L41.2774241,11.1107176 C41.2774241,11.1107176 48.3735621,9.17027647 48.8325276,9.05174706 C49.0081483,9.00662941 49.1902172,8.96724706 49.3688724,8.93589412 C49.4557345,9.00701176 49.4386655,9.37712941 49.4386655,9.43601176 C49.4386655,9.49489412 49.4819069,9.54039412 49.5524586,9.55224706 C49.6211138,9.56295294 49.7261828,9.5771 49.8642517,9.55683529 L49.8642517,9.55836471 L49.8642517,9.55683529 C49.8824586,9.55454118 49.898769,9.55339412 49.9173552,9.54918824 C50.0834931,9.51477647 51.4323207,9.13051176 51.5104586,9.11062941 C51.5885966,9.09151176 51.6178034,9.05174706 51.6178034,9.01274706 C51.6178034,8.97298235 51.6276655,8.61815882 51.6276655,8.61815882 L51.6128724,8.62045294 C51.8658724,8.4981 51.8783897,8.33521765 51.8867345,8.23924706 C51.8939414,8.15321765 51.9258034,7.13118824 51.9258034,7.13118824 L51.921631,7.13271765 C51.9497,7.08492353 51.966769,7.03598235 51.9698034,6.98818824 C51.9796655,6.84021765 52.0202517,6.24833529 52.0202517,6.24833529 L52.0278379,6.26515882 C52.1325276,6.49571765 52.3028379,6.6846 52.6464931,6.75533529 C53.2374586,6.87768824 55.5444241,7.34377647 56.8048724,7.68139412 C57.9090448,7.97695294 60.2600103,8.65257059 60.9973897,8.8686 L60.9970103,8.86936471 L60.9973897,8.8686 C61.1013207,8.89918824 61.173769,8.92021765 61.2052517,8.93015882 C61.3304241,8.96877647 61.4093207,8.99668824 61.481769,9.00471765 C61.4810103,9.00662941 61.4802517,9.00815882 61.4794931,9.01007059 L61.4829069,9.00471765 C61.5583897,9.01274706 61.6266655,8.99936471 61.7321138,8.95157059 C61.9388379,8.85827647 62.2824931,8.66939412 62.4239759,8.62427647 C62.5654586,8.57877647 62.6747,8.41665882 62.4626655,8.32642353 C62.4327,8.31342353 62.2733897,8.24345294 62.0192517,8.13218824 L62.019631,8.13142353 L62.0192517,8.13180588 C61.8906655,8.07521765 61.7374241,8.00830588 61.5655966,7.9326 L61.5667345,7.93068824 L61.5652172,7.93221765 C59.6387,7.08530588 55.2625966,5.15748235 54.8411828,4.95789412 C54.3078724,4.70515882 53.5625276,4.42642353 52.9711828,4.40730588 C52.3802172,4.38780588 52.0908034,4.31630588 51.9493207,4.20618824 C51.9493207,4.20618824 51.9792862,4.06662941 51.8981138,3.94771765 L51.8981138,3.94733529 L51.8977345,3.94733529 C51.8670103,3.9026 51.8207345,3.86092353 51.7501828,3.83071765 C51.4933897,3.7206 51.3132172,3.7011 51.184631,3.6361 C51.0560448,3.57148235 50.5614241,3.34474706 50.4457345,3.29312941 C50.3300448,3.24112941 50.2337,3.13101176 50.0345621,3.05989412 C49.8354241,2.98877647 49.3533207,2.87177647 49.0703552,3.06639412 C49.0703552,3.06639412 48.8583207,3.00139412 48.6079759,2.98189412 C48.3572517,2.96239412 48.3121138,2.98189412 48.2222172,3.11151176 C48.2222172,3.11151176 45.0682517,1.8811 44.2773897,1.59930588 C43.5502517,1.34007059 41.4268724,0.618570588 40.7407,0.378452941 L40.7422172,0.378070588 L40.7384241,0.378070588 C40.6792517,0.357423529 40.6295621,0.339835294 40.5939069,0.326835294 C40.5005966,0.293188235 40.4148724,0.267952941 40.3340793,0.246923529 L40.3344586,0.246923529 L40.3340793,0.246923529 C40.0275966,0.167011765 39.8094931,0.165864706 39.6831828,0.165864706 C39.5234931,0.165864706 39.2280103,0.286305882 39.5075621,0.407511765 C39.7871138,0.528335294 44.6768034,2.34030588 45.4278379,2.62248235 C46.1447345,2.89127647 48.6940793,3.70262941 48.9247,3.77604118 L48.9429069,3.78330588 C48.9425276,3.78598235 48.9387345,3.80242353 48.9349414,3.82765882 L48.9341828,3.82727647 C48.9341828,3.82804118 48.9345621,3.82918824 48.9345621,3.82995294 C48.9250793,3.89380588 48.9163552,4.00889412 48.9595966,4.08995294 C48.9910793,4.14845294 49.0563207,4.27195294 49.1538034,4.39468824 C49.1352172,4.40386471 48.8404931,4.54304118 48.8033207,4.74683529 C48.8033207,4.74683529 48.578769,4.97854118 48.544631,5.41212941 C48.5101138,5.84533529 48.4763552,6.60851176 48.4763552,6.60851176 C48.4763552,6.60851176 48.1440793,6.50030588 47.9779414,6.44142353 C47.8114241,6.38254118 47.7382172,6.39707059 47.6308724,6.42651176 C47.5239069,6.45595294 39.6289414,8.45871765 39.5314586,8.48395294 C39.5253897,8.43080588 39.5200793,8.38224706 39.5155276,8.34401176 C39.4999759,8.22051176 39.4464931,8.22051176 39.3004586,8.18954118 C39.161631,8.1601 37.9755276,7.94865882 37.8598379,7.92839412 C37.7194931,7.17936471 37.5328724,6.18677647 37.5044241,6.0541 C37.4585276,5.83768824 37.3432172,5.47407059 37.1975621,5.34254118 C37.0515276,5.21062941 36.6373207,5.15671765 36.2841828,5.12574706 C35.9803552,5.09898235 35.7239414,4.88792353 35.6583207,4.82942353 C35.6021828,4.73421765 35.5475621,4.64742353 35.4955966,4.56751176 L35.4974931,4.56751176 L35.4955966,4.56751176 C35.3673897,4.36983529 35.257769,4.22148235 35.1978379,4.14233529 C35.0745621,3.97945294 34.8374931,3.90489412 34.4365621,3.88118824 C33.6377345,3.83377647 32.1899069,3.84524706 31.3963897,3.88118824 C30.9950793,3.89915882 30.7439759,3.99092353 30.6347345,4.14233529 C30.5543207,4.25512941 30.3714931,4.49907059 30.1765276,4.82789412 C30.1131828,4.88448235 29.8548724,5.09898235 29.548769,5.12574706 C29.195631,5.15671765 28.7810448,5.21062941 28.6353897,5.34254118 C28.4897345,5.47407059 28.3744241,5.83768824 28.3281483,6.0541 C28.3000793,6.18677647 28.1134586,7.17936471 27.9731138,7.92839412 C27.8574241,7.94865882 26.6709414,8.1601 26.5321138,8.18954118 C26.3864586,8.22051176 26.3329759,8.22051176 26.3174241,8.34401176 C26.3124931,8.38224706 26.3071828,8.43080588 26.3014931,8.48395294 C26.203631,8.45871765 18.3090448,6.45595294 18.2020793,6.42651176 C18.0947345,6.39707059 18.0211483,6.38254118 17.8553897,6.44142353 C17.6892517,6.50030588 17.3592517,6.61271765 17.3592517,6.61271765 C17.3592517,6.61271765 17.3224586,5.84533529 17.2883207,5.41212941 C17.2541828,4.97854118 17.0292517,4.74683529 17.0292517,4.74683529 C16.9924586,4.54304118 16.6977345,4.40386471 16.678769,4.39468824 C16.776631,4.27195294 16.8418724,4.14845294 16.8733552,4.08995294 C16.9165966,4.00889412 16.9078724,3.89380588 16.8983897,3.82995294 C16.8983897,3.82918824 16.8991483,3.82804118 16.8991483,3.82727647 L16.8980103,3.82765882 C16.8942172,3.80242353 16.8908034,3.78598235 16.8900448,3.78330588 L16.9082517,3.77604118 C17.1388724,3.70262941 19.6882172,2.89127647 20.4051138,2.62248235 C21.1561483,2.34030588 26.0458379,0.528335294 26.3253897,0.407511765 C26.6049414,0.286305882 26.3094586,0.165864706 26.149769,0.165864706 C26.0234586,0.165864706 25.8053552,0.167011765 25.4988724,0.246923529 L25.4984931,0.246923529 L25.4988724,0.246923529 C25.4177,0.267952941 25.3323552,0.293188235 25.2386655,0.326835294 C25.2033897,0.339835294 25.1537,0.357423529 25.0945276,0.378070588 L25.0907345,0.378070588 L25.0922517,0.378452941 C24.4064586,0.618570588 22.2827,1.34007059 21.5555621,1.59930588 C20.7647,1.8811 17.6103552,3.11151176 17.6103552,3.11151176 C17.5204586,2.98189412 17.4757,2.96239412 17.2249759,2.98189412 C16.9742517,3.00139412 16.7622172,3.06639412 16.7622172,3.06639412 C16.479631,2.87177647 15.9975276,2.98877647 15.7983897,3.05989412 C15.5992517,3.13101176 15.5029069,3.24112941 15.3872172,3.29312941 C15.2715276,3.34474706 14.7765276,3.57148235 14.6479414,3.6361 C14.5197345,3.7011 14.3395621,3.7206 14.082769,3.83071765 C14.0122172,3.86092353 13.9659414,3.9026 13.9352172,3.94733529 L13.9348379,3.94733529 L13.9352172,3.94771765 C13.8536655,4.06662941 13.8832517,4.20618824 13.8832517,4.20618824 C13.7421483,4.31630588 13.4531138,4.38780588 12.861769,4.40730588 C12.2704241,4.42642353 11.5250793,4.70515882 10.991769,4.95789412 C10.4584586,5.21024706 3.58232069,8.23542353 3.37028621,8.32642353 C3.15825172,8.41665882 3.2674931,8.57877647 3.40897586,8.62427647 C3.55045862,8.66939412 3.89411379,8.85827647 4.10083793,8.95157059 C4.30718276,9.04486471 4.37128621,9.00930588 4.6277,8.93015882 C4.88411379,8.85139412 7.76763103,8.01862941 9.02807931,7.68139412 C10.2885276,7.34377647 12.5951138,6.87615882 13.1864586,6.75533529 C13.5923207,6.67236471 13.8073897,6.26018824 13.8073897,6.26018824 C13.8073897,6.26018824 13.8532862,6.84021765 13.8631483,6.98818824 C13.8661828,7.03598235 13.8828724,7.08492353 13.9113207,7.13271765 L13.9071483,7.13118824 C13.9071483,7.13118824 13.9086655,7.18777647 13.9113207,7.27418824 L13.9071483,7.27380588 C13.9071483,7.27380588 13.9090448,7.27648235 13.9117,7.27992353 C13.9200448,7.56171765 13.938631,8.15321765 13.9462172,8.23924706 C13.9545621,8.33521765 13.9674586,8.4981 14.2200793,8.62045294 L14.2052862,8.61815882 C14.2052862,8.61815882 14.214769,8.97298235 14.214769,9.01274706 C14.214769,9.05174706 14.2443552,9.09151176 14.3224931,9.11062941 C14.400631,9.13051176 15.7490793,9.51477647 15.9152172,9.54918824 C15.9345621,9.55339412 15.9508724,9.55454118 15.9683207,9.55683529 L15.9687,9.55836471 L15.9687,9.55683529 C16.106769,9.5771 16.2118379,9.56295294 16.2804931,9.55224706 C16.3510448,9.54039412 16.3942862,9.49489412 16.3942862,9.43601176 C16.3942862,9.37712941 16.3775966,9.00701176 16.4640793,8.93589412 C16.6423552,8.96724706 16.8248034,9.00662941 17.0000448,9.05174706 C17.4593897,9.17027647 24.5733552,11.1153059 24.5733552,11.1153059 C24.5733552,11.1153059 25.2545966,11.2521882 25.4662517,11.2705412 C25.654769,11.2869824 25.7681828,11.2284824 25.7913207,11.2154824 C25.7943552,11.3225412 25.7973897,11.4341882 25.8004241,11.5481294 C25.5079759,11.4663059 23.596631,10.9294824 23.2495621,10.8438353 C22.8736655,10.7501588 22.5842517,10.7849529 22.2318724,10.8568353 C22.0964586,10.8843647 20.7381483,11.2288647 19.1177345,11.6425706 L19.1177345,11.6429529 C18.9508379,11.6857765 18.7812862,11.7289824 18.6102172,11.7725706 L18.6098379,11.7721882 L18.6098379,11.7725706 C18.5491483,11.7882471 18.4880793,11.8035412 18.4270103,11.8192176 L18.426631,11.8192176 C16.0934931,12.4160706 13.5119069,13.0794529 13.2755966,13.1402471 C12.926631,12.9506 12.6850103,12.8167765 12.6133207,12.7720412 C12.2192172,12.5261882 11.508769,12.1472765 10.6792172,12.1247176 C9.84928621,12.1025412 9.57428621,11.9541882 9.46807931,11.8490412 L9.46466552,11.8486588 C9.46276897,11.7936 9.46011379,11.7240118 9.45745862,11.6639824 C9.45632069,11.6444824 9.45138966,11.6265118 9.44494138,11.6096882 C9.44532069,11.6047176 9.44532069,11.6012765 9.44532069,11.6012765 L9.44038966,11.6001294 C9.4017,11.5167765 9.29738966,11.4601882 9.17752759,11.3932765 C9.02959655,11.3099235 8.87028621,11.3267471 8.87028621,11.3267471 L8.06387241,10.9233647 C7.88407931,10.6939529 7.55787241,10.6496 7.33407931,10.6396588 C7.17780345,10.6335412 7.03707931,10.6564824 6.9047,10.6866882 C5.56952759,9.76674706 2.41101034,8.2966 1.83407931,8.03851176 C1.29887241,7.79839412 0.588424138,7.74486471 0.234148276,7.82095294 C-0.119748276,7.89742353 0.00504482759,8.08592353 0.108975862,8.15245294 C1.02576897,8.7386 3.36004483,10.2553941 3.8834931,10.6159529 C3.91763103,10.6396588 3.95821724,10.6645118 4.00259655,10.6897471 C4.00221724,10.6901294 4.0007,10.6905118 4.0007,10.6905118 L4.00676897,10.6920412 C4.64325172,11.0514529 6.21966552,11.5508059 6.42866552,11.6949529 L6.49352759,12.5059235 L6.48442414,12.5036294 C6.48442414,12.5036294 6.48632069,12.5105118 6.49087241,12.5208353 C6.45256207,12.5422471 6.00535517,12.8007176 6.04442414,13.1119529 C6.04442414,13.1119529 5.99018276,13.1696882 5.94314828,13.2981588 L5.93745862,13.2973941 C5.93745862,13.2973941 5.93821724,13.3004529 5.94011379,13.3065706 C5.89952759,13.4212765 5.86614828,13.5898941 5.88056207,13.8235118 C5.91242414,14.3305118 6.00345862,15.6121588 6.00345862,15.6121588 C6.00345862,15.6121588 5.53387241,15.7356588 5.58128621,16.0621882 C5.58128621,16.0621882 5.48266552,16.1291 5.40528621,16.2789824 L5.40414828,16.2717176 C5.40414828,16.2717176 5.40452759,16.2747765 5.40528621,16.2793647 C5.36166552,16.3634824 5.32487241,16.4743647 5.31614828,16.6150706 C5.31083793,16.6047471 5.30818276,16.5986294 5.30818276,16.5986294 L5.31538966,16.6296 C5.31159655,16.7091294 5.31576897,16.7970706 5.33321724,16.8957176 C5.37304483,17.1190118 5.44814828,17.3212765 5.54032069,17.4994529 L5.54221724,17.5155118 C5.54221724,17.5155118 5.55473448,17.5376882 5.57976897,17.5713353 C5.64614828,17.6891 5.71897586,17.7946294 5.79294138,17.8875412 L5.79104483,17.8871588 C5.79104483,17.8871588 5.79218276,17.8879235 5.79445862,17.8890706 C5.88511379,18.0030118 5.97728621,18.0974529 6.05959655,18.1708647 C6.32056207,18.4014235 6.62628621,19.1271294 6.85842414,19.6742765 C7.06363103,20.1575706 8.80238966,24.3477765 9.20711379,25.3235412 L9.20218276,25.3250706 C9.20218276,25.3250706 9.20483793,25.3266 9.20938966,25.3288941 C9.22380345,25.3633059 9.2367,25.3942765 9.24732069,25.4202765 C9.27614828,25.4894824 9.35428621,25.5315412 9.45404483,25.5380412 C9.77038966,25.5590706 10.4618724,25.6041882 10.7198034,25.6168059 C11.0589069,25.6336294 11.4772862,25.2910412 11.2572862,24.7561294 C11.0376655,24.2219824 8.64535517,18.3532471 8.64535517,18.3532471 C8.64535517,18.3532471 8.79745862,18.3287765 8.80656207,18.3268647 C8.95904483,18.2985706 9.34594138,18.2163647 9.57807931,18.0982176 C9.99532069,17.8860118 10.6777,17.5162765 11.1309759,17.4329235 C11.551631,17.3556882 14.9062517,16.6192765 15.3879759,16.5137471 C16.0889414,16.7194529 16.6340103,16.8823353 16.7443897,16.9217176 C16.9514931,16.9951294 17.1756655,17.0865118 17.3729069,17.0911 C17.3725276,17.0914824 17.3710103,17.0933941 17.3710103,17.0933941 L17.3736655,17.0911 C17.4203207,17.0922471 17.4650793,17.0884235 17.5075621,17.0784824 L17.5068034,17.0792471 L17.5079414,17.0781 C17.5496655,17.0689235 17.5891138,17.0540118 17.6259069,17.0314529 C17.8622172,16.8876882 18.5794931,16.6598059 18.7919069,16.5925118 C19.0039414,16.5248353 19.2133207,16.2931294 18.8708034,16.1222176 L18.3204241,15.8469235 C18.3204241,15.8469235 18.6470103,15.7716 19.1363207,15.6611 L19.1367,15.6618647 L19.1367,15.6611 C19.2064931,15.6450412 19.2800793,15.6286 19.3567,15.6110118 L19.3567,15.6117765 L19.3567,15.6110118 C19.4170103,15.5976294 19.4792172,15.5834824 19.5429414,15.5689529 L19.5433207,15.5697176 L19.5433207,15.5689529 C19.7064241,15.5322471 25.0270103,14.3301294 25.2948034,14.2743059 C25.6210103,14.2066294 25.8038379,13.9313353 25.8618724,13.8281 C25.885769,14.3312765 25.9897,16.0105706 26.0871828,16.0809235 C26.1945276,16.1585412 26.2635621,16.2128353 26.2635621,16.2128353 L26.2688724,16.2071 C26.3121138,16.3611882 26.3671138,16.5164235 26.4376655,16.5703353 C26.556769,16.6609529 26.7259414,16.7156294 26.9349414,16.7079824 C27.0453207,16.7045412 27.2755621,16.7007176 27.4974586,16.7060706 C27.5008724,16.8333941 27.5604241,19.0854529 27.578631,19.6245706 C27.5975966,20.1793647 27.4910103,21.2763353 28.6729414,21.4843353 C28.6729414,21.4843353 29.0128034,21.5508647 29.1554241,21.5944529 C29.3435621,21.6518059 29.4880793,21.6724529 29.6682517,21.8192765 C29.8480448,21.9657176 30.1822172,22.3243647 30.6662172,22.5920118 C31.1502172,22.8596588 32.0799069,23.2657176 33.0695276,23.1923059 C34.0591483,23.1188941 35.3488034,22.7606294 36.3255276,21.5986588 C37.2946655,20.4462471 37.5632172,19.0560118 37.3538379,17.9590412 L37.3549759,17.9621 C37.3542172,17.9582765 37.3534586,17.9544529 37.3523207,17.9506294 C37.3511828,17.9448941 37.3504241,17.9383941 37.3496655,17.9326588 C37.3496655,17.9326588 37.545769,17.3468941 37.6041828,16.9664529 L38.1439414,16.7508059 C38.1545621,16.7473647 38.1655621,16.7431588 38.1739069,16.7404824 L38.1697345,16.7404824 L38.2198034,16.7206 L38.0718724,16.7209824 L38.0900793,16.7167765 C38.3616655,16.6976588 38.7451483,16.7030118 38.8980103,16.7079824 C39.106631,16.7156294 39.2761828,16.6609529 39.3949069,16.5703353 C39.4654586,16.5164235 39.5208379,16.3611882 39.5637,16.2071 L39.5693897,16.2128353 C39.5693897,16.2128353 39.6384241,16.1585412 39.745769,16.0809235 C39.8428724,16.0109529 39.9464241,14.3370118 39.9710793,13.8311588 C40.0116655,13.9072471 40.1880448,14.2016588 40.537769,14.2743059 C40.8059414,14.3301294 43.7952862,15.0049824 45.7673207,15.4508059 L45.7673207,15.4511882 L45.7677,15.4508059 C45.9516655,15.4928647 46.1265276,15.5322471 46.289631,15.5689529 C46.3537345,15.5834824 46.4159414,15.5976294 46.4762517,15.6110118 L46.4758724,15.6117765 L46.4762517,15.6110118 C46.5528724,15.6286 46.6264586,15.6450412 46.6962517,15.6611 L46.6962517,15.6618647 L46.6962517,15.6611 C47.1859414,15.7716 47.5371828,15.8515118 47.5371828,15.8515118 L46.961769,16.1222176 C46.619631,16.2931294 46.8290103,16.5248353 47.0410448,16.5925118 C47.2534586,16.6598059 47.9711138,16.8876882 48.2070448,17.0314529 C48.2438379,17.0540118 48.2832862,17.0689235 48.324631,17.0781 L48.3261483,17.0792471 L48.3253897,17.0784824 C48.3678724,17.0884235 48.412631,17.0922471 48.4592862,17.0911 L48.4615621,17.0933941 C48.4615621,17.0933941 48.4604241,17.0914824 48.4600448,17.0911 C48.6569069,17.0865118 48.8814586,16.9951294 49.0885621,16.9217176 C49.1989414,16.8823353 49.7440103,16.7194529 50.4449759,16.5137471 C50.9267,16.6192765 54.2813207,17.3556882 54.7019759,17.4329235 C55.1552517,17.5162765 55.837631,17.8860118 56.2548724,18.0982176 C56.4870103,18.2163647 56.8272517,18.2905412 57.0263897,18.3268647 C57.0275276,18.3360412 57.0286655,18.3410118 57.0286655,18.3410118 L57.070769,18.3345118 C57.1420793,18.3471294 57.1875966,18.3532471 57.1875966,18.3532471 C57.1875966,18.3532471 54.7952862,24.2219824 54.5756655,24.7561294 C54.3556655,25.2910412 54.7740448,25.6336294 55.1131483,25.6168059 C55.3707,25.6041882 56.0625621,25.5590706 56.3789069,25.5380412 C56.4786655,25.5315412 56.5568034,25.4894824 56.585631,25.4202765 C56.5962517,25.3942765 56.6091483,25.3633059 56.6235621,25.3288941 C56.6281138,25.3266 56.6311483,25.3250706 56.6311483,25.3250706 L56.6254586,25.3235412 C57.0305621,24.3477765 58.7693207,20.1575706 58.9741483,19.6742765 C59.2066655,19.1271294 59.5123897,18.4014235 59.7733552,18.1708647 C59.8556655,18.0974529 59.9478379,18.0030118 60.0384931,17.8890706 C60.040769,17.8879235 60.0419069,17.8871588 60.0419069,17.8871588 L60.0400103,17.8875412 C60.1139759,17.7946294 60.1868034,17.6891 60.2531828,17.5713353 C60.2782172,17.5376882 60.2907345,17.5155118 60.2907345,17.5155118 L60.2922517,17.4994529 C60.3848034,17.3212765 60.4599069,17.1190118 60.4997345,16.8957176 C60.5171828,16.7970706 60.5213552,16.7091294 60.5175621,16.6296 L60.524769,16.5986294 C60.524769,16.5986294 60.5221138,16.6047471 60.5168034,16.6150706 C60.5077,16.4743647 60.4712862,16.3634824 60.4276655,16.2793647 C60.4280448,16.2747765 60.4284241,16.2717176 60.4284241,16.2717176 L60.4276655,16.2789824 C60.3502862,16.1291 60.2516655,16.0621882 60.2516655,16.0621882 C60.2990793,15.7356588 59.8294931,15.6121588 59.8294931,15.6121588 C59.8294931,15.6121588 59.9201483,14.3305118 59.9520103,13.8235118 C59.9668034,13.5898941 59.9330448,13.4212765 59.8928379,13.3065706 C59.8947345,13.3004529 59.8954931,13.2973941 59.8954931,13.2973941 L59.8894241,13.2981588 C59.842769,13.1696882 59.7885276,13.1119529 59.7885276,13.1119529 C59.8275966,12.8007176 59.3800103,12.5422471 59.3420793,12.5208353 C59.3462517,12.5105118 59.3481483,12.5036294 59.3481483,12.5036294 L59.3394241,12.5059235 L59.4042862,11.6949529 C59.6132862,11.5508059 61.1897,11.0514529 61.8261828,10.6920412 L61.8322517,10.6905118 C61.8322517,10.6905118 61.8307345,10.6901294 61.8299759,10.6897471 C61.8747345,10.6645118 61.9153207,10.6396588 61.9498379,10.6159529 C62.4729069,10.2553941 64.8071828,8.7386 65.7239759,8.15245294 C65.8279069,8.08592353 65.9523207,7.89742353 65.5988034,7.82095294 L65.5988034,7.82095294 Z" id="Fill-1" fill="#6F7372" mask="url(#mask-2)"></path>
                </g>
                <path d="M34.7202483,20.6149794 C34.7202483,21.5337735 33.9134552,22.2789794 32.9181448,22.2789794 C31.9228345,22.2789794 31.1160414,21.5337735 31.1160414,20.6149794 C31.1160414,19.6958029 31.9228345,18.9505971 32.9181448,18.9505971 C33.9134552,18.9505971 34.7202483,19.6958029 34.7202483,20.6149794" id="Fill-4" fill="#6F7372"></path>
                <path d="M34.4405828,20.7277353 C34.4405828,21.5058235 33.7589621,22.1367059 32.918031,22.1367059 C32.0774793,22.1367059 31.3958586,21.5058235 31.3958586,20.7277353 C31.3958586,19.9496471 32.0774793,19.3187647 32.918031,19.3187647 C33.7589621,19.3187647 34.4405828,19.9496471 34.4405828,20.7277353" id="Fill-6" fill="#FEFEFE"></path>
                <path d="M33.465831,20.4540471 C33.465831,20.7339294 33.2207966,20.9610471 32.9181069,20.9610471 C32.6157966,20.9610471 32.3707621,20.7339294 32.3707621,20.4540471 C32.3707621,20.1745471 32.6157966,19.9474294 32.9181069,19.9474294 C33.2207966,19.9474294 33.465831,20.1745471 33.465831,20.4540471" id="Fill-8" fill="#6F7372"></path>
                <path d="M36.7140552,18.4616059 C36.5752276,17.6192824 36.1925034,17.0782529 36.1925034,17.0782529 L35.6076069,17.0782529 C35.6076069,17.0782529 36.1538138,17.8731647 36.3009862,18.4811059 C36.4288138,19.0083706 36.5297103,19.5211059 36.5244,19.9474294 C36.5244,19.9474294 36.8289862,19.1567235 36.7140552,18.4616059" id="Fill-10" fill="#FEFEFE"></path>
                <path d="M28.1758552,16.9516176 L28.2392,19.9473529 C28.2392,19.9473529 28.2153034,20.7912059 28.6735103,21.086 C29.1320966,21.3804118 29.6616138,21.3486765 29.6616138,21.3486765 C29.1795103,21.1177353 28.7607517,20.7277353 28.7053724,20.2735 C28.6325448,19.6728235 28.6025793,16.9516176 28.6025793,16.9516176 L28.1758552,16.9516176 Z" id="Fill-12" fill="#FEFEFE"></path>
            </g>
        </g>
    </g>
</svg>