<?xml version="1.0" encoding="UTF-8"?>
<svg width="90px" height="60px" viewBox="0 0 90 60" version="1.1" xmlns="http://www.w3.org/2000/svg" xmlns:xlink="http://www.w3.org/1999/xlink">
    <!-- Generator: Sketch 40.3 (33839) - http://www.bohemiancoding.com/sketch -->
    <title>icon-inspire</title>
    <desc>Created with Sketch.</desc>
    <defs></defs>
    <g id="导航" stroke="none" stroke-width="1" fill="none" fill-rule="evenodd">
        <g transform="translate(-747.000000, -968.000000)">
            <rect id="Rectangle-5" x="733" y="958" width="120" height="104"></rect>
            <g id="Group-10" transform="translate(757.000000, 984.000000)" fill="#707473">
                <path d="M35.7854366,25.4473416 L33.6998575,25.4473416 C33.280837,25.4473416 32.9411765,24.7496562 32.9411765,23.8857073 L32.9411765,23.7551827 C32.9411765,22.8927876 33.280837,22.1935484 33.6998575,22.1935484 L35.7854366,22.1935484 C36.2044571,22.1935484 36.5441176,22.8927876 36.5441176,23.7551827 L36.5441176,23.8857073 C36.5441176,24.7496562 36.2044571,25.4473416 35.7854366,25.4473416 Z" id="Fill-1"></path>
                <path d="M33.4702941,11.2914703 C33.3669054,11.2914703 33.2619501,11.2743778 33.1585614,11.2401928 L14.2274552,4.98899416 C13.7105115,4.81651515 13.4301087,4.2602315 13.6008568,3.74590221 C13.7747379,3.23001905 14.333977,2.95187722 14.8524872,3.12280237 L33.7820269,9.37400101 C34.3005371,9.54492616 34.5809399,10.1027637 34.4086253,10.617093 C34.2707737,11.0288672 33.8854156,11.2914703 33.4702941,11.2914703" id="Fill-3"></path>
                <path d="M33.4702941,13.6796054 C33.4452302,13.6796054 33.4170332,13.6749438 33.3919693,13.6671745 L14.4624297,7.41442194 C14.333977,7.37246759 14.2634847,7.23261974 14.3057801,7.10520282 C14.3496419,6.97623203 14.4859271,6.90630811 14.6190793,6.94826246 L33.5486189,13.201015 C33.6786381,13.2445232 33.7475639,13.3828172 33.7052685,13.511788 C33.6708056,13.614343 33.5752494,13.6796054 33.4702941,13.6796054" id="Fill-5"></path>
                <path d="M37.0938683,11.2914703 C36.6787468,11.2914703 36.2933887,11.0288672 36.1555371,10.617093 C35.981656,10.1027637 36.2620588,9.54492616 36.7821355,9.37400101 L55.7116752,3.12280237 C56.2286189,2.95187722 56.790991,3.23001905 56.9633056,3.74590221 C57.1356202,4.2602315 56.8552174,4.81651515 56.3367072,4.98899416 L37.4071675,11.2401928 C37.3037788,11.2743778 37.197257,11.2914703 37.0938683,11.2914703" id="Fill-7"></path>
                <path d="M37.0938683,13.6796054 C36.9904795,13.6796054 36.8933568,13.614343 36.8588939,13.511788 C36.8165985,13.3828172 36.8855243,13.2445232 37.0155435,13.201015 L55.9466496,6.94826246 C56.0766688,6.90630811 56.2145205,6.97467816 56.2583824,7.10520282 C56.3022442,7.23261974 56.2317519,7.37246759 56.1017327,7.41442194 L37.1721931,13.6671745 C37.1455627,13.6749438 37.1204987,13.6796054 37.0938683,13.6796054" id="Fill-9"></path>
                <path d="M38.3455882,6.19354839 C38.3455882,6.19354839 37.0765249,4.12903226 34.7314802,4.12903226 C32.3848689,4.12903226 31.1397059,6.19354839 31.1397059,6.19354839 L32.1691176,18.5806452 L33.1985294,21.6559049 L36.2867647,21.6559049 L37.3161765,18.5806452" id="Fill-11"></path>
                <path d="M11.2534623,1.53257699 L13.9901311,1.53257699 C13.9901311,1.53257699 13.5781426,0.000466159481 12.7087372,0.000466159481 C11.8408983,0.000466159481 11.5150671,0.928123528 11.2534623,1.53257699" id="Fill-13"></path>
                <path d="M13.7232001,6.88812789 L11.5207065,6.88812789 C10.8392807,6.88812789 10.287874,6.43750705 10.287874,5.88122341 L10.287874,3.69804317 C10.287874,3.14175952 10.8392807,2.69113869 11.5207065,2.69113869 L13.7232001,2.69113869 C14.4030595,2.69113869 14.9560326,3.14175952 14.9560326,3.69804317 L14.9560326,5.88122341 C14.9560326,6.43750705 14.4030595,6.88812789 13.7232001,6.88812789" id="Fill-15"></path>
                <path d="M13.9667903,11.0385011 L11.2771164,11.0385011 C10.4468734,11.0385011 9.77328005,10.5878803 9.77328005,10.0315967 L9.77328005,7.84841642 C9.77328005,7.29213277 10.4468734,6.84151194 11.2771164,6.84151194 L13.9667903,6.84151194 C14.7970332,6.84151194 15.4706266,7.29213277 15.4706266,7.84841642 L15.4706266,10.0315967 C15.4706266,10.5878803 14.7970332,11.0385011 13.9667903,11.0385011" id="Fill-17"></path>
                <polygon id="Fill-19" points="11.1394214 11.4704756 13.8102973 11.4704756 14.5935454 20.4362763 12.8657001 20.4362763"></polygon>
                <path d="M1.27582161,3.46449727 C1.15050192,3.46449727 1.04241368,3.36815764 1.02988171,3.24074072 C1.01734974,3.10555447 1.1176055,2.98590687 1.25389066,2.97347595 L24.7153037,0.815157547 C24.8468894,0.801172762 24.9722091,0.902173983 24.984741,1.03736023 C24.997273,1.17254648 24.8970173,1.29219408 24.7607321,1.304625 L1.29931905,3.4629434 C1.29148657,3.46449727 1.28365409,3.46449727 1.27582161,3.46449727" id="Fill-21"></path>
                <path d="M58.7741752,1.53257699 L56.0375064,1.53257699 C56.0375064,1.53257699 56.4494949,0.000466159481 57.3189003,0.000466159481 C58.1883056,0.000466159481 58.5141368,0.928123528 58.7741752,1.53257699" id="Fill-24"></path>
                <path d="M56.3044373,6.88812789 L58.5084974,6.88812789 C59.1883568,6.88812789 59.7397634,6.43750705 59.7397634,5.88122341 L59.7397634,3.69804317 C59.7397634,3.14175952 59.1883568,2.69113869 58.5084974,2.69113869 L56.3044373,2.69113869 C55.624578,2.69113869 55.0731714,3.14175952 55.0731714,3.69804317 L55.0731714,5.88122341 C55.0731714,6.43750705 55.624578,6.88812789 56.3044373,6.88812789" id="Fill-26"></path>
                <path d="M56.0616304,11.0385011 L58.7513043,11.0385011 C59.5815473,11.0385011 60.2551407,10.5878803 60.2551407,10.0315967 L60.2551407,7.84841642 C60.2551407,7.29213277 59.5815473,6.84151194 58.7513043,6.84151194 L56.0616304,6.84151194 C55.2313875,6.84151194 54.5562276,7.29213277 54.5562276,7.84841642 L54.5562276,10.0315967 C54.5562276,10.5878803 55.2313875,11.0385011 56.0616304,11.0385011" id="Fill-28"></path>
                <polygon id="Fill-30" points="58.8882161 11.4704756 56.2173402 11.4704756 55.4356586 20.4362763 57.1619373 20.4362763"></polygon>
                <path d="M68.9585934,3.60185893 C68.9491944,3.60185893 68.9397954,3.60030506 68.9303964,3.60030506 L45.8950703,1.01156607 C45.7603517,0.996027426 45.6632289,0.873272095 45.6788939,0.739639711 C45.6929923,0.602899596 45.818312,0.508113835 45.9514642,0.522098619 L68.9852238,3.11083761 C69.1230754,3.12793012 69.2201982,3.24757772 69.2045332,3.38276397 C69.1904348,3.50862703 69.0823465,3.60185893 68.9585934,3.60185893" id="Fill-32"></path>
                <path d="M37.4185134,28.5623684 C37.4185134,30.0867099 36.1747155,31.3235864 34.6379827,31.3235864 C33.1028165,31.3235864 31.857452,30.0867099 31.857452,28.5623684 C31.857452,27.036473 33.1028165,25.7995965 34.6379827,25.7995965 C36.1747155,25.7995965 37.4185134,27.036473 37.4185134,28.5623684 M34.6379827,30.1814956 C33.7513459,30.1814956 33.0307577,29.4651639 33.0307577,28.5825686 C33.0307577,27.7015272 33.7513459,26.9851955 34.6379827,26.9851955 C35.5261861,26.9851955 36.2467743,27.7015272 36.2467743,28.5825686 C36.2467743,29.4651639 35.5261861,30.1814956 34.6379827,30.1814956 M34.6379827,27.4762168 C34.0239162,27.4762168 33.524204,27.9734536 33.524204,28.5825686 C33.524204,29.1932375 34.0239162,29.6904743 34.6379827,29.6904743 C35.2520492,29.6904743 35.7517615,29.1932375 35.7517615,28.5825686 C35.7517615,27.9734536 35.2520492,27.4762168 34.6379827,27.4762168" id="Fill-35"></path>
                <path d="M32.6043574,30.1367443 L30.8028868,29.967373 C30.4645237,29.9347419 30.2044853,29.6519385 30.2044853,29.311642 L30.2044853,27.885194 C30.2044853,27.5526669 30.4566912,27.2698635 30.7919214,27.2325708 L32.6043574,27.0290144 L32.6043574,30.1367443" id="Fill-37"></path>
            </g>
        </g>
    </g>
</svg>